<svg width="20" height="20" viewBox="0 0 20 20" fill="none" xmlns="http://www.w3.org/2000/svg">
<path d="M18.2663 9.66664C16.583 5.75831 13.4163 3.33331 9.99965 3.33331C6.58298 3.33331 3.41631 5.75831 1.73298 9.66664C1.6871 9.77178 1.66341 9.88526 1.66341 9.99998C1.66341 10.1147 1.6871 10.2282 1.73298 10.3333C3.41631 14.2416 6.58298 16.6666 9.99965 16.6666C13.4163 16.6666 16.583 14.2416 18.2663 10.3333C18.3122 10.2282 18.3359 10.1147 18.3359 9.99998C18.3359 9.88526 18.3122 9.77178 18.2663 9.66664ZM9.99965 15C7.35798 15 4.85798 13.0916 3.41631 9.99998C4.85798 6.90831 7.35798 4.99998 9.99965 4.99998C12.6413 4.99998 15.1413 6.90831 16.583 9.99998C15.1413 13.0916 12.6413 15 9.99965 15ZM9.99965 6.66664C9.34038 6.66664 8.69591 6.86214 8.14775 7.22841C7.59958 7.59468 7.17234 8.11528 6.92005 8.72436C6.66776 9.33345 6.60175 10.0037 6.73036 10.6503C6.85898 11.2969 7.17645 11.8908 7.64262 12.357C8.1088 12.8232 8.70274 13.1406 9.34935 13.2693C9.99595 13.3979 10.6662 13.3319 11.2753 13.0796C11.8843 12.8273 12.4049 12.4 12.7712 11.8519C13.1375 11.3037 13.333 10.6593 13.333 9.99998C13.333 9.11592 12.9818 8.26807 12.3567 7.64295C11.7315 7.01783 10.8837 6.66664 9.99965 6.66664ZM9.99965 11.6666C9.67001 11.6666 9.34778 11.5689 9.0737 11.3858C8.79962 11.2026 8.58599 10.9423 8.45985 10.6378C8.3337 10.3332 8.3007 9.99813 8.365 9.67483C8.42931 9.35152 8.58805 9.05455 8.82114 8.82147C9.05422 8.58838 9.3512 8.42964 9.6745 8.36533C9.9978 8.30103 10.3329 8.33403 10.6375 8.46018C10.942 8.58632 11.2023 8.79994 11.3854 9.07403C11.5686 9.34811 11.6663 9.67034 11.6663 9.99998C11.6663 10.442 11.4907 10.8659 11.1782 11.1785C10.8656 11.4911 10.4417 11.6666 9.99965 11.6666Z" fill="#BAC1CE"/>
</svg>
